<?xml version="1.0" encoding="utf-8"?>
<!-- Generator: Adobe Illustrator 22.1.0, SVG Export Plug-In . SVG Version: 6.00 Build 0)  -->
<svg version="1.1" id="Layer_1" xmlns="http://www.w3.org/2000/svg" xmlns:xlink="http://www.w3.org/1999/xlink" x="0px" y="0px"
	 width="22.9px" height="40px" viewBox="0 0 22.9 40" style="enable-background:new 0 0 22.9 40;" xml:space="preserve">
<style type="text/css">
	.st0{fill:#FFFFFF;}
</style>
<g id="Layer_2_1_">
	<g>
		<polygon class="st0" points="6.3,26.5 3.9,29 10.6,35.7 22.8,23.6 20.3,21.2 10.6,30.8 		"/>
		<path class="st0" d="M18.3,37.4c0,0.5-0.4,0.9-0.9,0.9H2.6c-0.5,0-0.9-0.4-0.9-0.9V22.6c0-0.5,0.4-0.9,0.9-0.9h14.7l1.4-1.4
			c-0.4-0.2-0.8-0.4-1.3-0.4H2.6C1.2,20,0,21.2,0,22.6v14.8C0,38.8,1.2,40,2.6,40h14.8c1.4,0,2.6-1.2,2.6-2.6v-8.5l-1.7,1.7V37.4z"
			/>
	</g>
</g>
<path class="st0" d="M17.4,1.7c0.5,0,0.9,0.4,0.9,0.9v14.8c0,0.5-0.4,0.9-0.9,0.9H2.6c-0.5,0-0.9-0.4-0.9-0.9V2.6
	c0-0.5,0.4-0.9,0.9-0.9H17.4 M17.4,0H2.6C1.2,0,0,1.2,0,2.6v14.8C0,18.8,1.2,20,2.6,20h14.8c1.4,0,2.6-1.2,2.6-2.6V2.6
	C20,1.2,18.8,0,17.4,0L17.4,0z"/>
</svg>
