<?xml version="1.0" encoding="utf-8"?>
<!-- Generator: Adobe Illustrator 22.1.0, SVG Export Plug-In . SVG Version: 6.00 Build 0)  -->
<svg version="1.1" id="Layer_1" xmlns="http://www.w3.org/2000/svg" xmlns:xlink="http://www.w3.org/1999/xlink" x="0px" y="0px"
	 width="21px" height="40px" viewBox="0 0 21 40" style="enable-background:new 0 0 21 40;" xml:space="preserve">
<style type="text/css">
	.st0{fill:#FFFFFF;}
	.st1{fill:#E84D37;}
	.st2{fill:#343434;}
</style>
<g>
	<path class="st0" d="M5.7,2L5.4,0H0v2h3.6l1.5,13h14l1.7-13C20.8,2,5.7,2,5.7,2z M17.4,13H6.9l-1-9h12.7L17.4,13z"/>
	<circle class="st0" cx="7" cy="18" r="2"/>
	<circle class="st0" cx="16" cy="18" r="2"/>
</g>
<polygon class="st1" points="5.9,24 6.9,33 17.4,33 18.5,24 "/>
<circle class="st2" cx="7" cy="38" r="2"/>
<circle class="st2" cx="16" cy="38" r="2"/>
<path class="st2" d="M5.7,22l-0.2-2H0v2h3.6l1.5,13h14l1.7-13C20.8,22,5.7,22,5.7,22z M17.4,33H6.9l-1-9h12.7L17.4,33z"/>
</svg>
