<?xml version="1.0" encoding="utf-8"?>
<!-- Generator: Adobe Illustrator 22.1.0, SVG Export Plug-In . SVG Version: 6.00 Build 0)  -->
<svg version="1.1" id="Layer_1" xmlns="http://www.w3.org/2000/svg" xmlns:xlink="http://www.w3.org/1999/xlink" x="0px" y="0px"
	 width="32px" height="32px" viewBox="0 0 32 32" style="enable-background:new 0 0 32 32;" xml:space="preserve">
<style type="text/css">
	.st0{fill:#FFFFFF;}
</style>
<g>
	<path class="st0" d="M16.6,14.5c0.4,0,0.7-0.1,1-0.2c0.3-0.1,0.5-0.3,0.6-0.6s0.1-0.5,0.1-0.8c0-0.2-0.1-0.5-0.2-0.7
		s-0.3-0.4-0.6-0.5c-0.3-0.1-0.6-0.2-1-0.2s-0.9,0-1.7,0h-0.3v3h0.6C15.7,14.5,16.2,14.5,16.6,14.5z"/>
	<path class="st0" d="M18.1,17.1C17.8,17,17.4,17,17,17c-0.5,0-1,0-1.6,0h-0.8v3.5h0.3c1,0,1.7,0,2.2,0c0.4,0,0.8-0.1,1.2-0.2
		c0.4-0.2,0.6-0.4,0.8-0.6s0.2-0.6,0.2-0.9c0-0.4-0.1-0.8-0.3-1C18.8,17.4,18.5,17.2,18.1,17.1z"/>
	<path class="st0" d="M16,0C7.2,0,0,7.2,0,16s7.2,16,16,16s16-7.2,16-16S24.8,0,16,0z M22.6,20.5c-0.3,0.5-0.6,1-1.1,1.3
		c-0.6,0.4-1.2,0.7-1.8,0.9S18.2,23,17.1,23H11V9h5.4c1.1,0,2,0,2.5,0.1s1,0.2,1.6,0.5c0.5,0.3,0.9,0.6,1.2,1.1
		c0.3,0.5,0.4,1,0.4,1.6c0,0.7-0.2,1.3-0.5,1.8c-0.4,0.5-0.9,0.9-1.5,1.2v0.1c0.9,0.2,1.6,0.6,2.2,1.1c0.5,0.6,0.8,1.3,0.8,2.3
		C23,19.4,22.9,20,22.6,20.5z"/>
</g>
</svg>
