<?xml version="1.0" encoding="utf-8"?>
<!-- Generator: Adobe Illustrator 22.1.0, SVG Export Plug-In . SVG Version: 6.00 Build 0)  -->
<svg version="1.1" id="Layer_1" xmlns="http://www.w3.org/2000/svg" xmlns:xlink="http://www.w3.org/1999/xlink" x="0px" y="0px"
	 width="22px" height="44px" viewBox="0 0 22 44" style="enable-background:new 0 0 22 44;" xml:space="preserve">
<style type="text/css">
	.st0{fill:#FFFFFF;}
</style>
<path class="st0" d="M11,3.5c4.1,0,7.5,3.3,7.5,7.5s-3.3,7.5-7.5,7.5S3.5,15.1,3.5,11S6.9,3.5,11,3.5 M11,0C4.9,0,0,4.9,0,11
	s4.9,11,11,11s11-4.9,11-11S17.1,0,11,0L11,0z"/>
<path class="st0" d="M11,25.5c4.1,0,7.5,3.3,7.5,7.5s-3.3,7.5-7.5,7.5S3.5,37.1,3.5,33S6.9,25.5,11,25.5 M11,22C4.9,22,0,26.9,0,33
	s4.9,11,11,11s11-4.9,11-11S17.1,22,11,22L11,22z"/>
<circle class="st0" cx="11" cy="33" r="4"/>
</svg>
